<svg width="82" height="82" viewBox="0 0 82 82" fill="none" xmlns="http://www.w3.org/2000/svg">
<g clip-path="url(#clip0_2_2)">
<rect width="82" height="82" fill="white"/>
<g filter="url(#filter0_f_2_2)">
<rect width="82" height="81" fill="#7446FF"/>
<rect x="0.5" y="0.5" width="81" height="80" stroke="black"/>
</g>
<g filter="url(#filter1_i_2_2)">
<ellipse cx="41" cy="40.5" rx="40" ry="39.5" fill="#DEC440"/>
</g>
<path d="M13.8572 14.0819C14.8439 13.7753 15.7992 13.0711 16.639 12.4763C17.0795 12.1642 17.901 11.3487 18.5057 11.3811C18.8775 11.401 17.6824 13.9139 17.5802 14.1084C16.5441 16.0803 15.2015 17.8506 13.7945 19.5579C13.3057 20.1509 12.8001 20.725 12.3304 21.3336C12.2863 21.3907 12.004 21.659 12.0219 21.7589C12.0365 21.841 12.1895 21.7737 12.2676 21.7483C12.5374 21.6608 12.7613 21.544 13.0154 21.408C15.5221 20.0666 17.8551 18.4381 20.3306 17.0538C20.8973 16.7369 21.3918 16.3362 21.9254 15.9692C22.0138 15.9084 22.2258 15.7179 22.213 15.8257C22.1574 16.2921 21.9574 16.7289 21.8156 17.1761C21.4855 18.2164 20.8677 20.1122 20.5397 21.0997C18.8212 26.2745 16.7452 31.2714 14.4219 36.1987C12.5685 40.1295 10.5835 43.8428 8.13159 47.4006C7.46636 48.3658 6.74063 49.2877 5.97206 50.1705C5.76194 50.4118 5.36047 50.9207 5.00994 50.9999C4.89921 51.0249 5.75 46.8956 5.75244 46.8849C6.23594 44.7747 6.70717 42.6547 7.39431 40.6007C8.24557 38.0562 9.36029 35.579 10.5212 33.1682C12.3677 29.3336 14.4428 25.6205 16.6808 22.0088C18.4792 19.1066 20.3547 16.2353 22.7359 13.7841C24.888 11.5687 27.3279 9.59354 29.8419 7.82429C32.3206 6.07989 35.0275 4.34093 37.9624 3.51258C40.992 2.65749 44.8558 2.8046 47.6044 4.46956C48.6476 5.10143 49.4091 6.04271 50.0306 7.08529C51.4494 9.46531 52.5241 12.1656 53.2307 14.8474C54.1255 18.2435 54.1249 21.9658 53.8059 25.4486C53.4469 29.3689 52.2949 33.3629 50.381 36.7994C49.6591 38.0956 48.8742 39.4076 47.7718 40.404C47.1853 40.9341 46.5519 41.5546 45.7325 41.6322C45.2512 41.6777 44.8227 41.6617 44.8227 41.0686C44.8227 39.8155 44.2304 38.477 43.7403 37.2885C43.6896 37.1657 43.1917 36.0595 43.0344 36.3794" stroke="black" stroke-width="2" stroke-linecap="round"/>
<path d="M69.5656 16.0631C69.5656 15.7497 69.5656 16.6897 69.56 17.003C69.5217 19.1468 69.1887 21.2016 68.6652 23.2946C68.659 23.3191 68.2182 25.8641 67.7647 25.887C67.5933 25.8957 67.6647 25.5629 67.6647 25.4827C67.6647 24.0321 68.795 23.0155 69.888 22.0514C70.4967 21.5145 71.3817 20.9691 72.2613 20.8891C72.3649 20.8797 72.5954 20.8562 72.567 21.0155C72.4622 21.6033 71.0292 22.1184 70.555 22.3395C68.5 23.2976 66.1591 23.6482 64.1186 24.6186C63.4506 24.9363 62.3147 25.5049 63.5516 25.9072C64.8868 26.3415 66.3879 26.5556 67.7981 26.6855C68.0335 26.7071 68.2679 26.7057 68.504 26.7057C68.7453 26.7057 68.0129 27.0072 67.9704 27.0291C67.3643 27.3422 65.9517 28.0792 65.8861 28.7473C65.7905 29.7209 68.1018 30.3785 68.8597 30.708C69.3397 30.9167 69.8202 31.1244 70.2993 31.3347C70.439 31.396 70.7849 31.4286 70.8551 31.5722C71.0236 31.9168 69.5295 32.7039 69.321 32.8608C68.4982 33.4799 68.5651 34.0312 68.5651 34.9782C68.5651 37.6431 68.5651 40.308 68.5651 42.9728C68.5651 47.1858 68.4094 51.4439 67.6869 55.6116C67.4808 56.8005 67.2713 57.9892 67.0088 59.1692C66.9743 59.3244 66.9136 59.8391 66.742 59.9778C66.5733 60.1141 66.6036 59.5866 66.5531 59.3865C66.3077 58.4147 65.9422 57.463 65.6193 56.5111C64.7669 53.9983 64.1584 51.4173 63.9629 48.7894C63.8076 46.701 63.583 44.3258 64.78 42.4422C65.7827 40.8643 67.3596 39.6255 68.932 38.5308C69.8833 37.8685 70.9123 37.2715 72.0334 36.8733C72.8546 36.5817 74.1919 36.2256 74.8348 36.944C75.5999 37.7991 75.9213 38.9075 76.2243 39.9508C76.9394 42.4133 77.3667 44.9235 77.6528 47.4553C77.8682 49.3615 77.961 51.2704 77.9696 53.1859C77.9745 54.2807 78.0864 55.4517 77.8473 56.5313C77.7441 56.997 77.511 58.2031 76.9691 58.4314C76.5106 58.6246 76.0434 57.9457 75.8797 57.7037C74.7268 55.9992 73.9064 54.1409 73.5675 52.16C73.3759 51.0404 73.1443 49.6771 73.4675 48.5569C73.6274 48.0024 73.7657 47.7736 73.0395 47.8191C72.2979 47.8656 71.289 48.0789 70.7717 48.6277C70.3621 49.0622 72.0257 49.4064 72.3002 49.5171C72.8496 49.7385 73.7858 50.1164 74.0566 50.644C74.8295 52.1497 70.9491 52.63 69.8657 52.63" stroke="black" stroke-width="2" stroke-linecap="round"/>
<path d="M40.9981 8.00973C40.9981 7.92518 40.6933 8.41754 40.6475 8.48664C39.8596 9.67463 39.2778 10.9725 38.6315 12.2209C37.85 13.7303 37.311 15.4571 36.221 16.8374C36.2076 16.8544 36.1418 16.8782 36.1553 16.8612C36.5043 16.4223 37.1269 16.0949 37.5906 15.7643C39.2067 14.6121 40.7519 13.3939 42.4936 12.383C43.3988 11.8577 44.3574 11.4266 45.293 10.9475C45.6962 10.7411 46.5539 10.3333 45.4793 10.7567C42.7599 11.8283 40.0269 12.8377 37.24 13.7708C35.1463 14.4719 33.0482 15.1534 31.1481 16.2078C30.7919 16.4055 29.0129 17.1676 29.3074 17.7101C29.4538 17.9797 30.0105 18.0498 30.2661 18.0917C31.7446 18.3336 33.2862 18.3764 34.7857 18.4303C37.6576 18.5335 40.6448 18.6349 43.5126 18.3635C44.0453 18.3131 43.2795 18.5814 43.2223 18.6067C41.6365 19.3091 40.031 19.9764 38.4123 20.6193C35.0093 21.9709 31.6017 23.3565 28.1241 24.5586C26.1392 25.2447 24.0014 25.8322 22.1857 26.8287C21.8775 26.9978 21.9838 27.0671 22.2788 27.0671C22.7688 27.0671 23.3414 26.9966 23.8182 27.1053C24.8871 27.349 25.4566 28.6611 25.7301 29.4708C25.9346 30.0759 26.0095 30.6757 26.0095 31.3021C26.0095 31.5047 25.9232 31.8889 26.0205 32.0795C26.0971 32.2295 27.4877 30.8989 27.5544 30.8443C29.9237 28.9024 32.7915 27.4275 36.1224 27.5822C37.3866 27.6409 37.8651 28.5268 37.8371 29.5137C37.8057 30.6223 37.2738 31.3369 36.2649 32.0079C35.2376 32.6911 33.9783 32.9276 32.7095 32.9808C32.1319 33.0051 31.3489 33.0485 30.8194 32.7996C30.4951 32.6472 30.2718 32.3562 29.9539 32.2178" stroke="black" stroke-width="2" stroke-linecap="round"/>
<g filter="url(#filter2_d_2_2)">
<path d="M39.2 36C39.2 37.7762 38.8872 39.5598 38.8797 41.3465C38.8605 45.9709 38.8797 50.5958 38.8797 55.2203C38.8797 56.9009 38.7918 58.6006 38.9628 60.2767C38.9704 60.351 39.2 61.2246 39.2 60.945C39.2 60.4443 39.2362 59.9825 39.3068 59.4892C39.5082 58.0822 39.5163 56.8985 39.2475 55.4897C38.9208 53.7774 38.8797 52.0301 38.8797 50.2987C38.8797 49.9441 38.8864 49.7304 39.0695 49.4283C39.1475 49.2997 39.2837 49.3266 39.3009 49.2366C39.3648 48.9016 39.2 48.6689 39.2 48.3559C39.2 48.0436 39.3068 47.7416 39.3068 47.47C39.3068 47.0695 39.5887 47.0038 39.9711 47.0038C40.692 47.0038 41.1503 46.9009 41.8158 46.6774C42.1097 46.5787 43.5327 46.197 43.5774 45.8847C43.5874 45.8145 44.1051 45.2682 43.9807 45.232C43.5029 45.0929 42.2642 45.9204 41.8454 46.0971C40.8543 46.5154 39.8341 46.889 38.8204 47.2628C37.0663 47.9097 35.2217 48.4234 33.3458 48.7238C32.4367 48.8693 31.4704 48.9394 30.6115 49.1538C30.4563 49.1925 30.382 49.2762 30.1785 49.2366C29.8533 49.1735 30.059 49.1352 30.1251 48.9621" stroke="black" stroke-width="2" stroke-linecap="round" shape-rendering="crispEdges"/>
</g>
<path d="M37.4231 49C37.4231 49.2509 37.4145 49.4719 37.3311 49.7163C36.6789 51.6264 36.0755 53.5484 35.4382 55.4632C34.4934 58.3014 33.2244 61.6839 30.7375 63.6846C30.5584 63.8287 30.2691 64.0127 30.0126 63.9993C29.873 63.992 30.9398 62.7205 30.9677 62.6861C33.1776 59.9558 34.7797 56.6732 36.3012 53.5638C36.7961 52.5524 37.3846 51.0877 38.2516 50.2698C38.6478 49.8961 38.5623 50.6327 38.5623 50.8179C38.5623 51.3791 38.6998 51.8861 39.0341 52.3591C40.2368 54.0606 42.1115 55.248 44.0397 56.1089C47.2147 57.5266 50.7008 58.2173 54.1947 58.399C56.0534 58.4957 58.1723 58.6907 60 58.3773" stroke="black" stroke-width="2" stroke-linecap="round"/>
<path d="M56.688 24C56.688 25.9838 57.6018 27.8322 58.2707 29.6608C58.4083 30.0368 59.1814 31.6276 58.9606 32.0722C58.7757 32.4447 57.3382 32.1995 56.9856 32.154C56.3076 32.0664 55.5783 32.0409 55.1729 32.733C54.816 33.3421 54.9835 34.304 54.9835 34.9673C54.9835 36.2207 54.9835 37.4741 54.9835 38.7275C54.9835 43.708 54.9081 48.4404 53.4684 53.2779C51.726 59.1321 48.4722 64.0806 45 69" stroke="black" stroke-width="2" stroke-linecap="round"/>
</g>
<defs>
<filter id="filter0_f_2_2" x="-4" y="-4" width="90" height="89" filterUnits="userSpaceOnUse" color-interpolation-filters="sRGB">
<feFlood flood-opacity="0" result="BackgroundImageFix"/>
<feBlend mode="normal" in="SourceGraphic" in2="BackgroundImageFix" result="shape"/>
<feGaussianBlur stdDeviation="2" result="effect1_foregroundBlur_2_2"/>
</filter>
<filter id="filter1_i_2_2" x="1" y="1" width="80" height="83" filterUnits="userSpaceOnUse" color-interpolation-filters="sRGB">
<feFlood flood-opacity="0" result="BackgroundImageFix"/>
<feBlend mode="normal" in="SourceGraphic" in2="BackgroundImageFix" result="shape"/>
<feColorMatrix in="SourceAlpha" type="matrix" values="0 0 0 0 0 0 0 0 0 0 0 0 0 0 0 0 0 0 127 0" result="hardAlpha"/>
<feOffset dy="4"/>
<feGaussianBlur stdDeviation="2"/>
<feComposite in2="hardAlpha" operator="arithmetic" k2="-1" k3="1"/>
<feColorMatrix type="matrix" values="0 0 0 0 0 0 0 0 0 0 0 0 0 0 0 0 0 0 0.25 0"/>
<feBlend mode="normal" in2="shape" result="effect1_innerShadow_2_2"/>
</filter>
<filter id="filter2_d_2_2" x="24.9997" y="35" width="24.0003" height="35.0005" filterUnits="userSpaceOnUse" color-interpolation-filters="sRGB">
<feFlood flood-opacity="0" result="BackgroundImageFix"/>
<feColorMatrix in="SourceAlpha" type="matrix" values="0 0 0 0 0 0 0 0 0 0 0 0 0 0 0 0 0 0 127 0" result="hardAlpha"/>
<feOffset dy="4"/>
<feGaussianBlur stdDeviation="2"/>
<feComposite in2="hardAlpha" operator="out"/>
<feColorMatrix type="matrix" values="0 0 0 0 0 0 0 0 0 0 0 0 0 0 0 0 0 0 0.25 0"/>
<feBlend mode="normal" in2="BackgroundImageFix" result="effect1_dropShadow_2_2"/>
<feBlend mode="normal" in="SourceGraphic" in2="effect1_dropShadow_2_2" result="shape"/>
</filter>
<clipPath id="clip0_2_2">
<rect width="82" height="82" fill="white"/>
</clipPath>
</defs>
</svg>
